<svg width="96" height="96" viewBox="0 0 96 96" fill="none" xmlns="http://www.w3.org/2000/svg">
  <rect width="96" height="96" rx="24" fill="#F8FAFC"/>
  <path d="M25 32.5C25 28.9101 27.9101 26 31.5 26H49.5C53.0899 26 56 28.9101 56 32.5V63.5C56 67.0899 53.0899 70 49.5 70H31.5C27.9101 70 25 67.0899 25 63.5V32.5Z" fill="#34A853"/>
  <path d="M58 39.0673L69.9989 31.7147C71.9979 30.4896 74.5556 31.9284 74.5556 34.2744V61.7256C74.5556 64.0716 71.9979 65.5104 69.9989 64.2853L58 56.9327V39.0673Z" fill="#4285F4"/>
  <path d="M56 44L65.5 37.5V58.5L56 52V44Z" fill="#0F9D58"/>
  <path d="M35 38L44 48L35 58L26 48L35 38Z" fill="#FBBC05"/>
  <path d="M45 38L54 48L45 58L36 48L45 38Z" fill="#34A853"/>
</svg>
